<!DOCTYPE svg PUBLIC "-//W3C//DTD SVG 1.1//EN" "http://www.w3.org/Graphics/SVG/1.1/DTD/svg11.dtd">
<!-- Uploaded to: SVG Repo, www.svgrepo.com, Transformed by: SVG Repo Mixer Tools -->
<svg fill="#E94E35" height="206px" width="206px" version="1.1" id="Capa_1" xmlns="http://www.w3.org/2000/svg" xmlns:xlink="http://www.w3.org/1999/xlink" viewBox="-18.21 -18.21 218.55 218.55" xml:space="preserve" stroke="#E94E35" stroke-width="0.00182131">
<g id="SVGRepo_bgCarrier" stroke-width="0"/>
<g id="SVGRepo_iconCarrier"> <path d="M177.63,108.26l-29.782-17.195l29.784-17.195c1.723-0.994,2.979-2.633,3.495-4.554c0.515-1.922,0.245-3.969-0.749-5.691 L159.485,27.44c-2.071-3.588-6.658-4.815-10.245-2.745l-29.784,17.196V7.5c0-4.142-3.358-7.5-7.5-7.5H70.174 c-4.142,0-7.5,3.358-7.5,7.5v34.391L32.89,24.694c-1.722-0.994-3.77-1.268-5.691-0.749c-1.921,0.515-3.56,1.771-4.554,3.494 L1.754,63.623c-0.995,1.723-1.264,3.77-0.75,5.691c0.515,1.921,1.772,3.56,3.495,4.554l29.785,17.196L4.501,108.26 c-3.587,2.071-4.816,6.658-2.745,10.245l20.891,36.185c0.995,1.723,2.632,2.98,4.554,3.494c1.92,0.517,3.969,0.246,5.691-0.749 l29.782-17.194v34.391c0,4.143,3.358,7.5,7.5,7.5h41.782c4.142,0,7.5-3.357,7.5-7.5v-34.392l29.782,17.195 c3.586,2.069,8.173,0.842,10.245-2.745l20.892-36.185c0.995-1.723,1.264-3.77,0.75-5.691 C180.609,110.893,179.353,109.254,177.63,108.26z M150.243,140.694l-34.537-19.94c-2.32-1.34-5.18-1.34-7.5,0 c-2.32,1.34-3.75,3.815-3.75,6.495v39.882H77.674V127.25c0-2.68-1.43-5.155-3.75-6.495c-2.32-1.34-5.18-1.34-7.5,0l-34.537,19.939 L18.496,117.5l34.538-19.94c2.32-1.34,3.75-3.815,3.75-6.495c0-2.68-1.43-5.155-3.75-6.495l-34.54-19.941l13.391-23.193 l34.539,19.941c2.32,1.34,5.18,1.34,7.5,0c2.32-1.34,3.75-3.815,3.75-6.495V15h26.782v39.881c0,2.68,1.43,5.155,3.75,6.495 c2.32,1.34,5.18,1.34,7.5,0l34.539-19.941l13.392,23.194l-34.539,19.94c-2.32,1.34-3.75,3.815-3.75,6.495 c0,2.68,1.43,5.155,3.75,6.495l34.537,19.94L150.243,140.694z"/> </g>
</svg>